<svg xmlns="http://www.w3.org/2000/svg" xmlns:xlink="http://www.w3.org/1999/xlink" width="21" zoomAndPan="magnify" viewBox="0 0 15.75 31.499999" height="42" preserveAspectRatio="xMidYMid meet" version="1.0"><defs><clipPath id="78d223e951"><path d="M 0 0 L 15.503906 0 L 15.503906 31 L 0 31 Z M 0 0 " clip-rule="nonzero"/></clipPath></defs><g clip-path="url(#78d223e951)"><path fill="#ffffff" d="M 7.710938 0 C 7.179688 0 6.746094 0.433594 6.746094 0.964844 L 6.746094 25.328125 L 1.441406 22.296875 C 1.023438 22.058594 0.492188 22.164062 0.199219 22.550781 C 0.0664062 22.722656 0 22.929688 0 23.132812 C 0 23.382812 0.09375 23.628906 0.28125 23.816406 L 7.027344 30.5625 C 7.40625 30.941406 8.015625 30.941406 8.394531 30.5625 L 15.140625 23.816406 C 15.484375 23.472656 15.519531 22.933594 15.226562 22.546875 C 14.933594 22.164062 14.398438 22.054688 13.980469 22.296875 L 8.675781 25.328125 L 8.675781 0.964844 C 8.675781 0.433594 8.242188 0 7.710938 0 Z M 7.710938 0 " fill-opacity="1" fill-rule="nonzero"/></g></svg>