<svg xmlns="http://www.w3.org/2000/svg" xmlns:xlink="http://www.w3.org/1999/xlink" width="6" zoomAndPan="magnify" viewBox="0 0 4.5 9" height="12" preserveAspectRatio="xMidYMid meet" version="1.0"><defs><clipPath id="3ef3e77417"><path d="M 0.015625 0 L 3.390625 0 L 3.390625 7.425781 L 0.015625 7.425781 Z M 0.015625 0 " clip-rule="nonzero"/></clipPath></defs><g clip-path="url(#3ef3e77417)"><path fill="#ffffff" d="M 2.609375 1.234375 L 3.390625 1.234375 L 3.390625 0.015625 L 2.394531 0.015625 L 2.394531 0.0195312 C 1.085938 0.0703125 0.816406 0.832031 0.796875 1.632812 L 0.792969 1.632812 L 0.792969 2.480469 L 0.015625 2.480469 L 0.015625 3.699219 L 0.792969 3.699219 L 0.792969 7.410156 L 2.1875 7.410156 L 2.1875 3.699219 L 3.191406 3.699219 L 3.390625 2.480469 L 2.1875 2.480469 L 2.1875 1.722656 C 2.1875 1.453125 2.363281 1.234375 2.609375 1.234375 Z M 2.609375 1.234375 " fill-opacity="1" fill-rule="nonzero"/></g></svg>