<svg xmlns="http://www.w3.org/2000/svg" xmlns:xlink="http://www.w3.org/1999/xlink" width="12" zoomAndPan="magnify" viewBox="0 0 9 9" height="12" preserveAspectRatio="xMidYMid meet" version="1.0"><defs><clipPath id="72689b35ef"><path d="M 0.449219 0 L 7.875 0 L 7.875 7.425781 L 0.449219 7.425781 Z M 0.449219 0 " clip-rule="nonzero"/></clipPath></defs><g clip-path="url(#72689b35ef)"><path fill="#ffffff" d="M 2.625 0.0273438 C 2.230469 0.0429688 1.960938 0.105469 1.722656 0.199219 C 1.480469 0.292969 1.273438 0.421875 1.066406 0.628906 C 0.859375 0.835938 0.734375 1.042969 0.640625 1.285156 C 0.550781 1.523438 0.488281 1.792969 0.46875 2.1875 C 0.453125 2.582031 0.449219 2.710938 0.449219 3.71875 C 0.453125 4.726562 0.457031 4.851562 0.476562 5.25 C 0.496094 5.644531 0.558594 5.914062 0.648438 6.148438 C 0.746094 6.390625 0.871094 6.597656 1.078125 6.804688 C 1.285156 7.011719 1.492188 7.136719 1.738281 7.230469 C 1.972656 7.324219 2.242188 7.386719 2.636719 7.402344 C 3.035156 7.417969 3.160156 7.421875 4.167969 7.421875 C 5.175781 7.417969 5.300781 7.414062 5.699219 7.394531 C 6.09375 7.378906 6.363281 7.3125 6.597656 7.222656 C 6.84375 7.125 7.050781 7 7.253906 6.792969 C 7.460938 6.585938 7.585938 6.378906 7.679688 6.136719 C 7.773438 5.898438 7.835938 5.628906 7.851562 5.234375 C 7.867188 4.839844 7.875 4.710938 7.871094 3.703125 C 7.871094 2.695312 7.863281 2.570312 7.847656 2.175781 C 7.828125 1.777344 7.765625 1.511719 7.671875 1.273438 C 7.578125 1.03125 7.449219 0.824219 7.242188 0.617188 C 7.035156 0.410156 6.828125 0.285156 6.585938 0.191406 C 6.347656 0.0976562 6.078125 0.0351562 5.683594 0.0195312 C 5.289062 0.00390625 5.160156 0 4.152344 0 C 3.144531 0.00390625 3.019531 0.0078125 2.625 0.0273438 M 2.667969 6.734375 C 2.304688 6.71875 2.109375 6.65625 1.976562 6.609375 C 1.804688 6.539062 1.679688 6.460938 1.550781 6.332031 C 1.421875 6.203125 1.339844 6.078125 1.273438 5.90625 C 1.222656 5.773438 1.160156 5.578125 1.144531 5.214844 C 1.125 4.824219 1.121094 4.707031 1.117188 3.714844 C 1.117188 2.726562 1.121094 2.609375 1.136719 2.21875 C 1.152344 1.855469 1.214844 1.660156 1.265625 1.527344 C 1.332031 1.355469 1.410156 1.230469 1.539062 1.101562 C 1.671875 0.972656 1.792969 0.890625 1.96875 0.824219 C 2.097656 0.773438 2.292969 0.710938 2.65625 0.695312 C 3.046875 0.675781 3.164062 0.671875 4.15625 0.667969 C 5.144531 0.667969 5.261719 0.671875 5.65625 0.6875 C 6.015625 0.703125 6.210938 0.761719 6.34375 0.8125 C 6.515625 0.882812 6.640625 0.960938 6.769531 1.089844 C 6.902344 1.21875 6.980469 1.34375 7.050781 1.515625 C 7.101562 1.648438 7.160156 1.84375 7.179688 2.207031 C 7.195312 2.597656 7.199219 2.714844 7.203125 3.703125 C 7.203125 4.695312 7.199219 4.8125 7.183594 5.203125 C 7.167969 5.566406 7.109375 5.761719 7.058594 5.894531 C 6.992188 6.066406 6.910156 6.191406 6.78125 6.320312 C 6.652344 6.449219 6.527344 6.53125 6.355469 6.597656 C 6.222656 6.648438 6.027344 6.710938 5.667969 6.726562 C 5.273438 6.746094 5.15625 6.75 4.167969 6.753906 C 3.175781 6.753906 3.058594 6.75 2.667969 6.734375 M 5.691406 1.726562 C 5.691406 1.972656 5.894531 2.171875 6.136719 2.171875 C 6.382812 2.171875 6.582031 1.972656 6.582031 1.726562 C 6.582031 1.480469 6.382812 1.28125 6.136719 1.28125 C 5.890625 1.28125 5.691406 1.480469 5.691406 1.726562 M 2.253906 3.714844 C 2.257812 4.765625 3.113281 5.617188 4.164062 5.617188 C 5.214844 5.613281 6.066406 4.757812 6.066406 3.707031 C 6.0625 2.65625 5.210938 1.804688 4.15625 1.804688 C 3.105469 1.808594 2.253906 2.664062 2.253906 3.714844 M 2.921875 3.714844 C 2.921875 3.03125 3.476562 2.476562 4.160156 2.472656 C 4.839844 2.472656 5.394531 3.023438 5.398438 3.707031 C 5.398438 4.390625 4.847656 4.945312 4.164062 4.949219 C 3.480469 4.949219 2.925781 4.394531 2.925781 3.714844 " fill-opacity="1" fill-rule="nonzero"/></g></svg>