<svg xmlns="http://www.w3.org/2000/svg" xmlns:xlink="http://www.w3.org/1999/xlink" width="173" zoomAndPan="magnify" viewBox="0 0 129.75 213.749993" height="285" preserveAspectRatio="xMidYMid meet" version="1.0"><defs><clipPath id="5661611494"><path d="M 0 0.0820312 L 128.75 0.0820312 L 128.75 179 L 0 179 Z M 0 0.0820312 " clip-rule="nonzero"/></clipPath><clipPath id="2970a6b594"><path d="M 45 180 L 75 180 L 75 213.417969 L 45 213.417969 Z M 45 180 " clip-rule="nonzero"/></clipPath></defs><g clip-path="url(#5661611494)"><path fill="#331d15" d="M 56.414062 178.980469 C 55.625 178.980469 54.847656 178.855469 54.074219 178.628906 C 51.105469 177.71875 48.867188 175.40625 47.234375 171.542969 C 46.136719 168.9375 45.234375 166.238281 44.570312 163.503906 C 43.28125 158.21875 42.746094 152.683594 42.972656 147.066406 C 43.410156 136.351562 46.523438 125.296875 51.984375 115.105469 C 54.953125 109.554688 58.65625 104.597656 61.878906 100.484375 C 65.40625 95.984375 69.132812 91.160156 72.476562 86.050781 C 75.683594 81.152344 78.636719 76.019531 81.273438 70.796875 C 83.707031 65.957031 86.089844 60.703125 86.984375 55.085938 C 87.691406 50.609375 87.066406 46.234375 85.21875 42.769531 C 84.265625 40.980469 83.097656 39.5625 81.746094 38.539062 C 80.210938 37.378906 78.164062 36.523438 75.652344 35.980469 C 73.683594 35.5625 71.621094 35.339844 69.53125 35.339844 C 62.136719 35.339844 54.960938 37.957031 49.855469 42.523438 C 46.730469 45.3125 44.472656 48.847656 43.324219 52.746094 C 42.148438 56.726562 42.242188 60.640625 43.585938 63.765625 C 44.082031 64.925781 44.785156 66.046875 45.53125 67.246094 C 46.089844 68.140625 46.664062 69.054688 47.179688 70.042969 C 48.699219 72.925781 49.53125 75.753906 49.714844 78.683594 C 50.113281 85.082031 47.59375 91.617188 43.132812 95.742188 C 43.042969 95.824219 42.953125 95.902344 42.851562 95.976562 C 39.269531 99.0625 34.726562 100.6875 29.703125 100.6875 C 24.679688 100.6875 27.652344 100.621094 26.621094 100.484375 C 20.75 99.703125 15.449219 97.136719 10.882812 92.878906 C 7.332031 89.558594 4.585938 85.191406 2.714844 79.898438 C -0.277344 71.414062 -0.757812 61.351562 1.277344 49.984375 C 3.171875 39.441406 8.027344 29.46875 15.328125 21.136719 C 22.550781 12.890625 32.214844 6.722656 43.28125 3.296875 C 50.152344 1.164062 57.511719 0.0820312 65.148438 0.0820312 C 72.78125 0.0820312 73.269531 0.386719 77.347656 0.980469 C 90.074219 2.84375 101.183594 7.683594 109.476562 14.984375 C 117.226562 21.800781 123.226562 31.292969 126.371094 41.699219 C 129.527344 52.128906 129.6875 63.453125 126.847656 74.4375 C 124.050781 85.234375 118.492188 95.40625 110.757812 103.851562 C 105.695312 109.378906 99.757812 113.921875 94.007812 118.3125 C 91.054688 120.570312 88 122.898438 85.152344 125.3125 C 80.339844 129.375 76.835938 133.054688 74.117188 136.871094 C 70.875 141.429688 68.375 146.398438 66.679688 151.644531 C 65.804688 154.371094 65.132812 157.179688 64.679688 160 C 64.300781 162.378906 64.191406 164.9375 64.320312 168.304688 C 64.429688 171.023438 63.949219 173.335938 62.894531 175.199219 C 61.550781 177.566406 59.121094 178.980469 56.40625 178.980469 Z M 56.414062 178.980469 " fill-opacity="1" fill-rule="nonzero"/></g><path fill="#ff751f" d="M 123.800781 42.472656 C 120.867188 32.757812 115.347656 23.726562 107.710938 17.007812 C 99.128906 9.457031 88.195312 5.296875 76.980469 3.652344 C 66.03125 2.050781 54.710938 2.585938 44.105469 5.875 C 33.851562 9.050781 24.480469 14.816406 17.390625 22.917969 C 10.578125 30.691406 5.800781 40.273438 3.964844 50.464844 C 2.285156 59.800781 2.097656 69.949219 5.289062 78.996094 C 6.859375 83.457031 9.273438 87.65625 12.746094 90.902344 C 16.738281 94.632812 21.542969 97.078125 26.992188 97.804688 C 32.09375 98.480469 37.226562 97.292969 41.140625 93.894531 C 41.195312 93.847656 41.25 93.808594 41.300781 93.757812 C 45.324219 90.03125 47.355469 84.289062 47.019531 78.851562 C 46.851562 76.164062 46.042969 73.675781 44.800781 71.300781 C 43.644531 69.109375 42.089844 67.117188 41.113281 64.835938 C 39.410156 60.863281 39.492188 56.214844 40.746094 51.984375 C 42.050781 47.5625 44.601562 43.609375 48.066406 40.507812 C 55.503906 33.867188 66.558594 31.261719 76.242188 33.339844 C 78.789062 33.890625 81.332031 34.820312 83.394531 36.386719 C 85.1875 37.746094 86.5625 39.515625 87.625 41.5 C 89.871094 45.722656 90.425781 50.738281 89.671875 55.511719 C 88.746094 61.34375 86.34375 66.78125 83.707031 72.019531 C 81.019531 77.355469 78.035156 82.539062 74.757812 87.535156 C 71.4375 92.609375 67.765625 97.390625 64.023438 102.15625 C 60.472656 106.683594 57.105469 111.300781 54.390625 116.378906 C 49.320312 125.847656 46.136719 136.414062 45.699219 147.171875 C 45.488281 152.433594 45.976562 157.746094 47.21875 162.863281 C 47.851562 165.464844 48.699219 168.015625 49.746094 170.488281 C 50.753906 172.878906 52.265625 175.238281 54.886719 176.039062 C 57.105469 176.71875 59.40625 175.902344 60.566406 173.863281 C 61.480469 172.253906 61.71875 170.238281 61.640625 168.414062 C 61.527344 165.433594 61.558594 162.519531 62.03125 159.570312 C 62.503906 156.601562 63.207031 153.675781 64.132812 150.8125 C 65.917969 145.277344 68.566406 140.039062 71.933594 135.304688 C 75.171875 130.761719 79.179688 126.839844 83.425781 123.25 C 91.839844 116.132812 101.300781 110.195312 108.789062 102.015625 C 116.105469 94.03125 121.53125 84.257812 124.25 73.757812 C 126.898438 63.503906 126.871094 52.632812 123.808594 42.480469 Z M 123.800781 42.472656 " fill-opacity="1" fill-rule="nonzero"/><g clip-path="url(#2970a6b594)"><path fill="#331d15" d="M 59.710938 213.140625 C 58.136719 213.140625 56.609375 212.894531 55.167969 212.414062 C 51.984375 211.34375 49.296875 209.167969 47.601562 206.28125 C 46.195312 203.886719 45.371094 200.984375 45.089844 197.410156 C 44.875 194.675781 45.058594 192.347656 45.660156 190.300781 C 45.675781 190.148438 45.707031 190.003906 45.738281 189.859375 C 45.921875 189.027344 46.226562 188.179688 46.675781 187.277344 C 48.128906 184.363281 51.105469 182.019531 54.441406 181.15625 C 55.511719 180.878906 56.625 180.742188 57.761719 180.742188 C 60.238281 180.742188 62.804688 181.40625 65.175781 182.660156 C 70.78125 185.613281 74.515625 191.714844 74.476562 197.824219 C 74.4375 204.351562 70.261719 210.335938 64.328125 212.382812 C 62.871094 212.886719 61.3125 213.140625 59.703125 213.140625 Z M 59.710938 213.140625 " fill-opacity="1" fill-rule="nonzero"/></g><path fill="#ff751f" d="M 63.917969 185.050781 C 61.246094 183.636719 58.09375 183.003906 55.121094 183.773438 C 52.632812 184.414062 50.257812 186.15625 49.105469 188.484375 C 48.800781 189.105469 48.539062 189.753906 48.394531 190.433594 C 48.363281 190.5625 48.347656 190.691406 48.347656 190.820312 C 47.699219 192.859375 47.632812 195.074219 47.800781 197.195312 C 48.011719 199.871094 48.578125 202.578125 49.953125 204.914062 C 51.328125 207.269531 53.464844 208.984375 56.039062 209.847656 C 58.390625 210.632812 61.117188 210.632812 63.460938 209.824219 C 68.476562 208.101562 71.75 203.054688 71.78125 197.808594 C 71.8125 192.554688 68.527344 187.484375 63.925781 185.058594 Z M 63.917969 185.050781 " fill-opacity="1" fill-rule="nonzero"/></svg>