<svg width="15" height="15" viewBox="0 0 15 15" fill="none" xmlns="http://www.w3.org/2000/svg">
<path d="M8.54641 4.01158C8.73907 4.01158 8.89525 3.8554 8.89525 3.66275C8.89525 3.47009 8.73907 3.31392 8.54641 3.31392C8.35376 3.31392 8.19758 3.47009 8.19758 3.66275C8.19758 3.8554 8.35376 4.01158 8.54641 4.01158Z" stroke="#71717A" stroke-linecap="round" stroke-linejoin="round"/>
<path d="M11.3371 6.80225C11.5297 6.80225 11.6859 6.64607 11.6859 6.45342C11.6859 6.26076 11.5297 6.10458 11.3371 6.10458C11.1444 6.10458 10.9882 6.26076 10.9882 6.45342C10.9882 6.64607 11.1444 6.80225 11.3371 6.80225Z" stroke="#71717A" stroke-linecap="round" stroke-linejoin="round"/>
<path d="M5.05808 4.70925C5.25074 4.70925 5.40692 4.55307 5.40692 4.36042C5.40692 4.16776 5.25074 4.01158 5.05808 4.01158C4.86543 4.01158 4.70925 4.16776 4.70925 4.36042C4.70925 4.55307 4.86543 4.70925 5.05808 4.70925Z" stroke="#71717A" stroke-linecap="round" stroke-linejoin="round"/>
<path d="M3.66275 8.19758C3.8554 8.19758 4.01158 8.0414 4.01158 7.84875C4.01158 7.65609 3.8554 7.49992 3.66275 7.49992C3.47009 7.49992 3.31392 7.65609 3.31392 7.84875C3.31392 8.0414 3.47009 8.19758 3.66275 8.19758Z" stroke="#71717A" stroke-linecap="round" stroke-linejoin="round"/>
<path d="M7.49992 0.52325C3.66275 0.52325 0.52325 3.66275 0.52325 7.49992C0.52325 11.3371 3.66275 14.4766 7.49992 14.4766C8.14595 14.4766 8.64967 13.9561 8.64967 13.2989C8.64967 12.994 8.52409 12.7164 8.34479 12.514C8.14247 12.3124 8.03921 12.0592 8.03921 11.7292C8.03657 11.5756 8.06486 11.4231 8.12241 11.2807C8.17995 11.1383 8.26557 11.009 8.37416 10.9004C8.48275 10.7918 8.61209 10.7062 8.75448 10.6487C8.89686 10.5911 9.04937 10.5628 9.20292 10.5655H10.5955C12.724 10.5655 14.471 8.8192 14.471 6.69062C14.4522 3.32229 11.3099 0.52325 7.49992 0.52325Z" stroke="#71717A" stroke-linecap="round" stroke-linejoin="round"/>
</svg>
