<svg width="174" height="175" viewBox="0 0 174 175" fill="none" xmlns="http://www.w3.org/2000/svg">
<path d="M134.415 65.5834L64.3801 25.4184C60.5904 23.23 56.2891 22.0837 51.9129 22.0957C47.5368 22.1077 43.2418 23.2777 39.4642 25.4868C35.6866 27.6959 32.561 30.8655 30.4047 34.6736C28.2485 38.4816 27.1386 42.7925 27.1876 47.1684V127.788C27.1876 134.364 29.7999 140.671 34.4499 145.321C39.0998 149.971 45.4065 152.583 51.9826 152.583C56.3358 152.576 60.6107 151.426 64.3801 149.248L134.415 109.083C138.178 106.905 141.303 103.776 143.475 100.01C145.647 96.2429 146.79 91.9714 146.79 87.6234C146.79 83.2754 145.647 79.0038 143.475 75.2372C141.303 71.4706 138.178 68.3414 134.415 66.1634V65.5834ZM127.165 95.9609L57.1301 136.706C55.5604 137.595 53.7869 138.063 51.9826 138.063C50.1783 138.063 48.4048 137.595 46.8351 136.706C45.2698 135.802 43.97 134.502 43.0664 132.937C42.1628 131.372 41.6873 129.596 41.6876 127.788V46.8784C41.6873 45.0709 42.1628 43.2953 43.0664 41.7299C43.97 40.1645 45.2698 38.8646 46.8351 37.9609C48.4101 37.0819 50.1791 36.6086 51.9826 36.5834C53.7845 36.6204 55.5506 37.093 57.1301 37.9609L127.165 78.4159C128.731 79.3192 130.031 80.6189 130.936 82.1843C131.84 83.7497 132.316 85.5256 132.316 87.3334C132.316 89.1411 131.84 90.917 130.936 92.4824C130.031 94.0478 128.731 95.3475 127.165 96.2509V95.9609Z" fill="#FB923C"/>
</svg>
