<svg width="24" height="24" viewBox="0 0 24 24" fill="none" xmlns="http://www.w3.org/2000/svg">
<path d="M12 14.1163C13.1572 14.1163 14.0953 13.1688 14.0953 11.9999C14.0953 10.8311 13.1572 9.88354 12 9.88354C10.8429 9.88354 9.90479 10.8311 9.90479 11.9999C9.90479 13.1688 10.8429 14.1163 12 14.1163Z" fill="#09090B"/>
<path d="M12.0001 16.7618C17.786 16.7618 22.4763 14.6299 22.4763 11.9999C22.4763 9.37001 17.786 7.23804 12.0001 7.23804C6.21428 7.23804 1.52393 9.37001 1.52393 11.9999C1.52393 14.6299 6.21428 16.7618 12.0001 16.7618Z" stroke="#09090B" stroke-width="1.5"/>
<path d="M7.9172 14.3809C10.8101 19.4422 14.9832 22.4792 17.238 21.1642C19.4928 19.8493 18.9755 14.6803 16.0826 9.619C13.1897 4.5577 9.0166 1.5207 6.76179 2.83566C4.50698 4.15063 5.02428 9.31961 7.9172 14.3809Z" stroke="#09090B" stroke-width="1.5"/>
<path d="M7.91732 9.61906C5.0244 14.6804 4.50711 19.8493 6.76192 21.1643C9.01673 22.4793 13.1898 19.4423 16.0827 14.381C18.9756 9.31967 19.4929 4.15069 17.2381 2.83572C14.9833 1.52076 10.8102 4.55776 7.91732 9.61906Z" stroke="#09090B" stroke-width="1.5"/>
</svg>
