<svg width="150" height="143" viewBox="0 0 150 143" fill="none" xmlns="http://www.w3.org/2000/svg">
<g filter="url(#filter0_dddd_0_335)">
<path d="M74.9997 64C72.0669 64 70.2327 65.6668 69.4998 68.9998C70.5998 67.3337 71.8827 66.708 73.3497 67.1259C74.1873 67.3628 74.7845 68.0526 75.4469 68.816C76.5249 70.0599 77.7735 71.5 80.5002 71.5C83.4336 71.5 85.2671 69.8332 86 66.5002C84.9007 68.1671 83.6172 68.792 82.1501 68.3749C81.3138 68.1379 80.7154 67.4474 80.0529 66.6833C78.9749 65.4401 77.7263 64 74.9997 64ZM69.4998 71.5C66.5664 71.5 64.7329 73.1668 64 76.4998C65.0993 74.8329 66.3828 74.2081 67.8499 74.6251C68.6862 74.8621 69.2846 75.5526 69.9471 76.3167C71.0251 77.5599 72.2737 79 74.9997 79C77.9338 79 79.7673 77.3332 80.5002 74.0002C79.4002 75.6671 78.1167 76.292 76.6503 75.8749C75.8133 75.6372 75.2155 74.9474 74.5531 74.1833C73.4745 72.9401 72.2271 71.5 69.4998 71.5Z" fill="#09090B"/>
</g>
<defs>
<filter id="filter0_dddd_0_335" x="-1" y="-5" width="152" height="152" filterUnits="userSpaceOnUse" color-interpolation-filters="sRGB">
<feFlood flood-opacity="0" result="BackgroundImageFix"/>
<feColorMatrix in="SourceAlpha" type="matrix" values="0 0 0 0 0 0 0 0 0 0 0 0 0 0 0 0 0 0 127 0" result="hardAlpha"/>
<feOffset/>
<feGaussianBlur stdDeviation="32"/>
<feColorMatrix type="matrix" values="0 0 0 0 0.992157 0 0 0 0 0.729412 0 0 0 0 0.454902 0 0 0 1 0"/>
<feBlend mode="normal" in2="BackgroundImageFix" result="effect1_dropShadow_0_335"/>
<feColorMatrix in="SourceAlpha" type="matrix" values="0 0 0 0 0 0 0 0 0 0 0 0 0 0 0 0 0 0 127 0" result="hardAlpha"/>
<feOffset/>
<feGaussianBlur stdDeviation="24"/>
<feColorMatrix type="matrix" values="0 0 0 0 0.992157 0 0 0 0 0.729412 0 0 0 0 0.454902 0 0 0 1 0"/>
<feBlend mode="normal" in2="effect1_dropShadow_0_335" result="effect2_dropShadow_0_335"/>
<feColorMatrix in="SourceAlpha" type="matrix" values="0 0 0 0 0 0 0 0 0 0 0 0 0 0 0 0 0 0 127 0" result="hardAlpha"/>
<feOffset/>
<feGaussianBlur stdDeviation="16"/>
<feColorMatrix type="matrix" values="0 0 0 0 0.992157 0 0 0 0 0.729412 0 0 0 0 0.454902 0 0 0 1 0"/>
<feBlend mode="normal" in2="effect2_dropShadow_0_335" result="effect3_dropShadow_0_335"/>
<feColorMatrix in="SourceAlpha" type="matrix" values="0 0 0 0 0 0 0 0 0 0 0 0 0 0 0 0 0 0 127 0" result="hardAlpha"/>
<feOffset/>
<feGaussianBlur stdDeviation="4"/>
<feColorMatrix type="matrix" values="0 0 0 0 0.992157 0 0 0 0 0.729412 0 0 0 0 0.454902 0 0 0 0.5 0"/>
<feBlend mode="normal" in2="effect3_dropShadow_0_335" result="effect4_dropShadow_0_335"/>
<feBlend mode="normal" in="SourceGraphic" in2="effect4_dropShadow_0_335" result="shape"/>
</filter>
</defs>
</svg>
