<svg width="16" height="16" viewBox="0 0 16 16" fill="none" xmlns="http://www.w3.org/2000/svg">
<path d="M8 2.00015H3.33333C2.97971 2.00015 2.64057 2.14063 2.39052 2.39068C2.14048 2.64072 2 2.97986 2 3.33348V12.6668C2 13.0204 2.14048 13.3596 2.39052 13.6096C2.64057 13.8597 2.97971 14.0002 3.33333 14.0002H12.6667C13.0203 14.0002 13.3594 13.8597 13.6095 13.6096C13.8595 13.3596 14 13.0204 14 12.6668V8.00015M12.25 1.75015C12.5152 1.48493 12.8749 1.33594 13.25 1.33594C13.6251 1.33594 13.9848 1.48493 14.25 1.75015C14.5152 2.01537 14.6642 2.37508 14.6642 2.75015C14.6642 3.12522 14.5152 3.48493 14.25 3.75015L8.24133 9.75948C8.08303 9.91765 7.88747 10.0334 7.67267 10.0962L5.75733 10.6562C5.69997 10.6729 5.63916 10.6739 5.58127 10.6591C5.52339 10.6442 5.47055 10.6141 5.4283 10.5719C5.38604 10.5296 5.35593 10.4768 5.3411 10.4189C5.32627 10.361 5.32727 10.3002 5.344 10.2428L5.904 8.32748C5.96702 8.11285 6.08302 7.91752 6.24133 7.75948L12.25 1.75015Z" stroke="#71717A" stroke-linecap="round" stroke-linejoin="round"/>
</svg>
